<?xml version="1.0" encoding="UTF-8"?>
<svg width="430px" height="114px" viewBox="0 0 430 114" version="1.1" xmlns="http://www.w3.org/2000/svg" xmlns:xlink="http://www.w3.org/1999/xlink">
    <title>texture-blue-1</title>
    <g id="Page-1" stroke="none" stroke-width="1" fill="none" fill-rule="evenodd">
        <g id="Artboard" transform="translate(9.000000, -3.000000)" fill="#BFE9FC" fill-rule="nonzero">
            <g id="texture-blue-1" transform="translate(-9.000000, 3.000000)">
                <path d="M427.762656,10.5708929 C427.173987,10.5237876 426.638833,10.4884587 426.371255,10.3706956 C427.923202,10.1351693 427.923202,10.1351693 426.638833,9.91141935 C426.424771,9.8643141 426.103679,9.84076147 425.836101,9.80543252 C425.836101,9.67589308 426.050163,9.56990625 426.371255,9.45214312 C427.120472,9.19306425 427.281017,8.94576167 425.996648,8.6984591 C425.461494,8.59247227 424.819309,8.48648546 424.872824,8.30984078 C424.92634,8.18030132 424.177125,8.06253819 423.588455,8.05076189 C422.3576,8.03898556 422.143539,7.86234087 421.55487,7.74457774 C421.661901,7.54438043 420.698624,7.33240679 421.822447,7.14398578 C422.143539,7.0851042 421.768932,7.00267002 421.447839,6.94378847 C420.9662,6.83780164 420.270501,6.76714376 419.949408,6.625828 C420.698624,6.39030173 420.538077,6.35497281 418.8791,6.248986 C418.343946,5.88392028 417.113092,5.55418352 417.862307,5.14201256 C417.59473,5.13023625 417.380669,5.11845994 417.113092,5.11845994 C408.015474,5.07135468 398.917856,5.1773415 389.873754,5.04780206 C386.983922,5.00069681 384.094091,4.96536787 381.204259,4.91826262 C376.54842,4.85938105 371.839065,4.74161792 367.022679,4.75339423 C366.487525,4.75339423 365.952371,4.76517055 365.417217,4.74161792 C360.761378,4.52964429 355.998507,4.57674954 351.289152,4.47076272 C348.720413,4.41188115 346.151673,4.42365747 343.689965,4.35299959 C340.532557,4.2705654 337.375148,4.25878909 334.271255,4.21168383 C329.615416,4.14102596 324.959576,4.17635489 320.250221,4.14102596 C314.631104,4.08214439 309.011987,4.07036808 303.339355,4.02326283 C301.840924,4.01148651 300.342492,4.01148651 298.897577,3.95260495 C297.292115,3.89372338 295.579622,3.9054997 293.920645,3.95260495 C290.709721,4.02326283 287.445282,4.16457858 284.234358,4.10569702 C280.327734,4.02326283 276.528141,4.19990752 272.728547,4.23523646 C268.714892,4.2705654 264.701237,4.40010484 260.634067,4.40010484 C259.938367,4.40010484 259.189151,4.38832853 258.493451,4.41188115 C253.463004,4.58852585 248.27201,4.51786797 243.241563,4.56497322 C235.428314,4.62385479 227.561551,4.6356311 219.694787,4.51786797 C212.630755,4.41188115 205.459691,4.48253903 198.342144,4.42365747 C189.726164,4.35299959 181.05667,4.37655222 172.440691,4.49431535 C172.280145,4.49431535 172.119598,4.49431535 171.905537,4.50609166 C167.303212,4.68273636 162.593857,4.55319691 157.991533,4.67096004 C154.673579,4.75339423 151.302108,4.62385479 147.984153,4.61207848 C143.756437,4.58852585 139.582236,4.58852585 135.301004,4.67096004 C130.270557,4.76517055 125.079563,4.71806529 119.9956,4.76517055 C114.590545,4.82405211 109.078459,4.77694686 103.619888,4.70628898 C100.301934,4.65918373 96.9839789,4.5414206 93.6125088,4.58852585 C93.1843856,4.58852585 92.7562625,4.5414206 92.3281394,4.52964429 C89.0637,4.48253903 85.7992607,4.41188115 82.5883371,4.57674954 C79.9660825,4.70628898 77.3973436,4.72984161 74.7750887,4.62385479 C73.3836884,4.56497322 71.8852572,4.55319691 70.6008876,4.61207848 C68.7278487,4.68273636 66.9618405,4.68273636 65.0888016,4.68273636 C57.9177382,4.68273636 50.7466749,4.68273636 43.5756115,4.68273636 C42.8799113,4.68273636 42.1306957,4.70628898 41.4349955,4.67096004 C38.3846178,4.49431535 35.1201786,4.60030216 31.9627701,4.50609166 C28.5912999,4.41188115 25.0592836,4.47076272 21.6342982,4.48253903 C18.6374359,4.49431535 16.7108815,4.83582843 16.6573661,5.36576251 C16.6038507,5.75438084 16.6573661,6.15477548 16.6573661,6.53161749 C15.158935,6.49628856 15.3729965,6.82602533 14.7843272,6.84957796 C13.2323807,6.90845952 13.7140192,7.15576208 13.2323807,7.30885416 C12.2691034,7.24997259 11.4128571,7.0733279 10.5030953,7.34418309 C11.2523109,7.39128835 12.0550419,7.41484097 12.3761342,7.56793306 C12.6972266,7.60326198 13.0718344,7.62681461 13.4464422,7.66214356 C13.4464422,7.62681461 13.4464422,7.60326198 13.4464422,7.59148568 L13.4464422,7.66214356 C14.6237809,7.75635407 15.0519042,7.90944613 14.5167502,8.13319607 C13.1253498,8.2509592 11.1452801,8.28628815 11.5198879,8.6984591 C11.5734032,8.74556435 11.2523109,8.80444591 11.0917647,8.86332749 C9.91442591,9.22839318 10.7171569,9.62878783 12.9112882,9.81720884 C13.6605038,10.0527351 13.7140192,10.3000377 12.750742,10.500235 C12.0550419,10.6533271 12.2691034,10.7357613 12.9648036,10.8417481 C14.088627,11.0066164 14.9983888,11.2185901 15.158935,11.4894453 C15.2124503,11.5836558 15.6405736,11.6543137 16.1222121,11.6896426 C15.9616659,12.3137872 15.5870582,12.9497081 15.6405736,13.5738527 C15.8011197,14.6337209 15.1054196,15.6818127 15.0519042,16.7299046 C15.0519042,16.859444 14.7843272,16.9772072 14.6237809,17.0949703 C14.4632348,17.2127334 14.356204,17.3304966 14.4097194,17.460036 C14.5702656,17.7308912 14.5702656,18.0135227 14.4097194,18.2843779 C13.9280808,19.3206935 12.9648036,20.357009 12.8042574,21.4168772 C12.750742,21.8290481 12.6437113,22.2529954 12.3226188,22.6651664 C11.8409803,23.253982 11.4128571,23.854574 11.3058263,24.4669422 C11.2523109,24.8673369 10.9312185,25.2677315 10.6636415,25.6681262 C10.2355183,26.339376 9.64684895,26.9870733 9.75387973,27.6465468 C9.75387973,27.8467441 9.91442591,28.0587177 9.70036434,28.2471387 C8.89763337,28.9066122 9.27224112,29.577862 9.27224112,30.2373357 C9.27224112,31.0145723 8.73708719,31.7800327 8.52302555,32.5572694 C8.41599477,32.9341113 8.52302555,33.3227296 8.30896398,33.6877954 C8.09490239,34.0057557 8.04138699,34.3354926 8.20193318,34.6652292 C8.57654094,35.407137 9.16521034,36.1372684 9.43278738,36.8791762 C9.53981816,37.1971365 9.32575652,37.5033207 9.64684895,37.8448339 C10.182003,38.3865442 10.5030953,38.9518073 10.3960645,39.5052941 C10.2355183,40.4120702 10.3425491,41.3070699 10.3425491,42.213846 C10.3425491,44.2158191 10.4495799,46.2177925 10.3425491,48.2197656 C10.2355183,49.6329232 10.8241877,51.0460808 10.3960645,52.4474621 C10.182003,53.2246986 11.1987955,53.990159 10.8777031,54.7673957 L10.8777031,54.8616061 C12.0550419,55.8154875 11.1452801,56.7811452 10.6636415,57.7232502 C10.3960645,58.3002895 9.96794131,58.8537763 9.80739513,59.4308157 C9.70036434,59.937197 10.0749721,60.4671311 9.64684895,60.9735126 C8.84411798,61.7978544 8.57654094,62.6221965 7.77380999,63.4583146 C6.91756362,64.3415381 7.07810982,65.2483144 5.68670946,66.1197615 C5.52616326,66.2139718 5.68670946,66.2964061 5.79374026,66.3906167 C6.32889424,66.779235 5.90077105,67.1914059 5.79374026,67.568248 C5.68670946,67.9804189 5.79374026,68.3925898 5.79374026,68.7929844 C5.84725566,69.1816029 5.74022486,69.5937738 5.74022486,69.9706157 C5.74022486,70.3474579 6.59647123,70.7714051 5.63319406,71.1482471 C5.52616326,71.2071287 5.74022486,71.3013391 5.90077105,71.371997 C6.16834804,71.5133129 6.22186345,71.6428522 5.90077105,71.7841679 C5.63319406,71.9254838 5.47264787,72.0550231 5.84725566,72.1845627 C6.16834804,72.3258784 6.11483264,72.4554177 5.79374026,72.5849573 C5.52616326,72.726273 5.52616326,72.8558125 5.79374026,72.9971282 C6.00780185,73.1031151 6.22186345,73.2091018 5.95428645,73.3150887 C5.31210167,73.585944 5.52616326,73.8685753 5.57967866,74.1394306 C5.63319406,74.6458121 5.79374026,75.1521936 5.57967866,75.6585751 C5.47264787,75.9058776 5.52616326,76.1414039 4.83046309,76.3769302 C4.4023399,76.5417985 3.76015512,76.7891011 4.18827831,76.8950878 C5.25858627,77.1894957 4.3488245,77.4132456 4.02773212,77.6841008 C2.31523937,77.9196271 4.13476291,78.3200217 2.68984716,78.5791006 C2.36875476,78.6379822 2.85039335,78.7321926 2.85039335,78.8028505 C2.74336255,79.1796925 4.18827831,79.5918636 2.63633176,79.9569292 C2.63633176,79.9569292 2.85039335,80.0040345 2.95742414,80.0158108 C3.54609353,80.1806791 3.49257813,80.3691001 3.49257813,80.5575213 C3.54609353,81.4642974 2.68984716,82.3828498 2.90390875,83.3014022 C3.06445494,84.1375203 2.95742414,84.9854148 2.90390875,85.8215332 C2.90390875,85.9392962 3.01093954,86.0923884 2.74336255,86.1983751 C1.67305458,86.5634409 1.88711618,86.9756118 1.51250839,87.3524538 C1.191416,87.7057433 0.388685025,88.1061379 1.83360078,88.4712035 C2.47578556,88.636072 2.47578556,88.8480456 2.52930096,89.0600192 C2.63633176,89.3073218 2.63633176,89.5664007 3.27851654,89.8254797 C4.13476291,90.1787689 4.99100928,90.5556109 4.99100928,90.9442294 C4.99100928,92.0512027 5.84725566,93.1346234 5.57967866,94.241597 C5.41913247,95.0188336 5.41913247,95.7960703 5.57967866,96.5733068 C5.68670946,97.0443593 5.79374026,97.5271882 5.79374026,97.9982407 C5.79374026,98.5399512 5.79374026,99.1052143 5.52616326,99.6469246 C5.36561707,100.000214 5.41913247,100.353503 5.09804008,100.706793 C4.5628861,101.378043 4.93749389,102.049293 4.66991689,102.720542 C4.61640149,102.885411 4.77694769,103.026727 3.92070131,103.109161 C3.11797034,103.191595 3.70663972,103.274029 3.76015512,103.356463 C3.97421671,103.733305 5.90077105,104.051266 5.04452468,104.463437 C5.95428645,104.722515 4.83046309,104.981594 5.09804008,105.240673 C5.74022486,105.900147 5.52616326,106.55962 4.72343229,107.207318 C4.18827831,107.643041 4.61640149,108.031659 5.84725566,108.420278 C6.16834804,108.514488 6.59647123,108.585146 6.59647123,108.702909 C6.22186345,108.938436 6.32889424,109.173962 6.43592504,109.397712 C6.54295583,109.633238 7.02459441,109.751001 8.73708719,109.774554 C12.750742,109.833435 16.7643969,109.880541 20.8315672,109.751001 C21.0991442,109.739225 21.4202366,109.727449 21.5807828,109.751001 C23.6678833,109.962975 25.8620146,109.845212 28.0561459,109.821659 C30.1967619,109.809883 32.3373778,109.69212 34.3174476,109.751001 C36.1904865,109.798106 37.6354023,109.739225 38.9732872,109.574356 C40.2041414,109.421264 41.3814801,109.397712 42.6123343,109.527251 C43.8431884,109.656791 44.1107655,109.527251 44.2713117,109.350606 L75.3102427,109.350606 C79.1098362,109.350606 82.8559137,109.46837 86.6555069,109.46837 C88.2609687,109.46837 89.9734621,109.46837 91.5254081,109.491922 C94.4687551,109.539028 97.4121021,109.56258 100.408965,109.56258 C102.121457,109.56258 103.994497,109.503699 105.546443,109.574356 C108.008151,109.668567 110.416344,109.433041 112.824537,109.621462 C115.018668,109.433041 117.319831,109.715672 119.567477,109.56258 C119.835054,109.539028 120.263177,109.574356 120.58427,109.597909 C121.547547,109.656791 122.457309,109.668567 123.420586,109.597909 C124.116286,109.539028 124.811986,109.539028 125.507686,109.597909 C126.256902,109.656791 127.059633,109.656791 127.862364,109.621462 C130.00298,109.550804 132.197111,109.574356 134.284212,109.609685 C136.478343,109.645014 138.565443,109.574356 140.759575,109.597909 C144.291591,109.633238 147.770092,109.656791 151.088047,109.821659 C156.974741,110.104291 161.737611,109.727449 163.717681,108.714686 C164.092288,108.538041 164.627442,108.514488 165.430174,108.514488 L172.012567,108.514488 C180.842608,108.526265 189.672649,108.538041 198.449175,108.538041 C205.834299,108.538041 213.272939,108.549817 220.71158,108.502712 C226.919366,108.467383 233.020121,108.596923 239.174393,108.620475 C243.402109,108.644028 247.57631,108.585146 251.696995,108.467383 C257.369628,108.302515 262.988744,108.184751 268.768408,108.196528 C272.139878,108.208304 275.511348,108.137646 278.668756,107.972778 C284.930058,107.643041 291.29839,107.631265 297.666723,107.548831 C298.683515,107.537054 299.539762,107.595936 300.342492,107.713699 C300.984677,107.796133 301.733893,107.878567 302.536624,107.772581 C304.998332,107.431068 308.04871,107.501725 310.831511,107.395739 C311.634242,107.36041 312.597519,107.336857 313.40025,107.513502 C313.774857,107.595936 315.112742,107.431068 316.129535,107.525278 C317.681482,107.690147 319.233428,107.58416 320.624828,107.442844 C322.658414,107.242646 324.852545,107.266199 327.046676,107.266199 C328.438076,107.266199 329.775962,107.466396 331.167362,107.348633 C332.719309,107.219094 334.378286,107.23087 336.037263,107.195541 C337.58921,107.171989 339.248187,107.242646 340.425526,106.971791 C340.532557,106.936462 340.907165,106.924686 341.121226,106.924686 C344.385666,106.91291 347.596589,106.901133 350.807513,106.889357 C351.503213,106.889357 352.252429,106.901133 352.948129,106.877581 C355.677415,106.771594 358.4067,106.748041 361.243016,106.771594 C366.808617,106.818699 372.374219,106.830476 377.993336,106.524292 C384.68276,106.159226 391.800308,106.135673 398.810825,106.135673 L414.437322,106.135673 C416.310361,106.135673 418.236915,106.194555 418.986131,105.770607 C419.039646,105.735278 419.200193,105.711726 419.307223,105.711726 C420.377531,105.664621 421.126747,105.546857 421.982993,105.452647 C422.94627,105.358437 423.427909,105.299555 423.427909,105.099358 C423.427909,105.040476 424.605248,104.993371 425.193917,104.922713 C425.996648,104.816726 425.996648,104.651858 425.086886,104.604752 C422.785724,104.534094 422.3576,104.22791 422.197055,103.90995 C422.090024,103.639095 421.55487,103.438897 420.056439,103.332911 C419.895892,103.297582 419.735347,103.274029 419.521285,103.2387 C419.521285,103.120937 419.307223,102.967845 419.788862,102.885411 C421.394323,102.56745 421.073231,102.284819 419.949408,101.943306 C419.467769,101.80199 418.611523,101.625345 419.788862,101.425148 C420.270501,101.330937 419.521285,101.248503 418.986131,101.189622 C418.932615,101.024753 419.521285,100.836332 418.665038,100.671464 C418.450976,100.624359 418.343946,100.506595 418.504492,100.45949 C419.146677,100.247517 418.718554,100.01199 418.986131,99.7882405 C419.253708,99.4820563 420.377531,99.2700826 421.394323,99.0463327 C421.822447,98.9521221 421.982993,98.8696881 421.608385,98.7637011 C421.608385,98.6577142 421.661901,98.5399512 421.55487,98.4339643 C421.233778,98.1631093 420.431046,97.9393593 419.735347,97.6920567 C419.093162,97.4800831 420.538077,97.1621226 419.735347,96.8912673 C419.681831,96.8559384 419.5748,96.8323857 419.5748,96.8088331 C419.5748,96.7146227 419.467769,96.6204121 419.5748,96.5379781 C420.109954,96.2317939 420.16347,95.937386 419.5748,95.631202 C419.360738,95.5134387 419.360738,95.3838994 419.628316,95.2661361 C420.002923,95.1012678 420.056439,94.9246232 419.895892,94.7597546 C419.5748,94.4535707 419.895892,94.1473865 419.895892,93.8529786 C419.788862,92.3809396 420.324016,90.9089004 419.5748,89.4250848 C419.200193,88.6242957 418.504492,87.81173 418.932615,87.0109408 C419.253708,86.4339014 417.701761,85.8804148 418.8791,85.3033753 C418.932615,85.2798227 418.8791,85.2444937 418.825585,85.2209411 C418.236915,84.9971911 418.504492,84.7616649 418.450976,84.5261386 C418.290431,83.8195598 418.8791,83.0894286 417.969338,82.3828498 C417.915823,82.3239682 417.915823,82.2533102 417.969338,82.1944286 C418.932615,81.4171921 418.236915,80.6517317 418.450976,79.8744949 C418.504492,79.5565346 418.504492,79.2385741 418.665038,78.9088375 C418.8791,78.3906796 419.200193,77.8607455 419.467769,77.3425877 C419.521285,77.2248246 419.521285,77.083509 419.414254,76.9657457 C418.665038,76.2473906 418.343946,75.5290355 418.397461,74.7871277 C418.450976,73.9981149 418.397461,73.2326545 418.397461,72.4554177 C418.397461,72.349431 418.343946,72.2316678 418.450976,72.1256811 C419.253708,71.4308786 419.093162,70.7007472 419.360738,70.0059447 C419.521285,69.4995632 419.949408,68.9931817 420.109954,68.4750241 C420.270501,67.7684453 421.233778,67.0618665 421.073231,66.3552877 C421.073231,66.2846298 421.073231,66.1904192 421.126747,66.1197615 C421.768932,65.5309457 421.661901,64.9185775 422.143539,64.3179856 C422.518147,63.8469331 422.571662,63.3994332 422.785724,62.9283807 C423.106817,62.1746966 423.856032,61.4327888 424.23064,60.6673284 C424.498217,60.0667366 424.658763,59.4543684 424.658763,58.8655526 C424.658763,57.5112766 425.407978,56.1570007 425.300947,54.814501 C425.300947,54.6731851 425.247432,54.5318695 425.407978,54.3905536 C426.103679,53.837067 426.21071,53.2718039 425.729071,52.7300936 C425.086886,51.9646332 424.658763,51.1873965 424.33767,50.4337124 C424.016578,49.6329232 423.320878,48.8203575 423.695486,48.0195683 C423.749001,47.9018051 423.749001,47.7604894 423.641971,47.6427262 C422.999786,46.841937 422.678693,46.0411476 422.678693,45.2403585 C422.732209,42.6024643 422.143539,39.952794 423.160332,37.3031234 C423.374393,36.7025316 423.267363,36.0901631 423.588455,35.4895713 C424.123609,34.5121372 423.213848,33.5347032 422.999786,32.5572694 C422.839239,31.9331247 422.411116,31.2972038 422.25057,30.6730593 C421.929477,29.5307569 422.143539,28.3766783 422.197055,27.2108233 C422.197055,27.0695074 422.197055,26.9281917 422.3576,26.7986522 C422.839239,26.4453628 422.785724,26.1038497 422.3576,25.738784 C421.875962,25.361942 421.608385,24.9733237 421.661901,24.5847054 C421.715416,23.2893109 421.715416,21.9939165 421.661901,20.6985221 C421.661901,20.0626012 422.036508,19.4266803 422.304085,18.8025357 C422.785724,17.6249044 423.213848,16.4472731 423.320878,15.2696418 C423.374393,14.6808261 422.411116,14.0684578 424.498217,13.5267474 C424.551732,13.5031948 424.284155,13.4443132 424.284155,13.397208 C424.444701,13.0910238 423.320878,12.8083924 424.123609,12.4904319 C424.123609,12.4786556 423.909547,12.4433266 423.802516,12.419774 C424.016578,12.3373398 424.498217,12.2902346 424.872824,12.2195767 C425.62204,12.1018136 427.762656,12.0311557 425.515009,11.7603005 C425.247432,11.7131952 425.515009,11.6072084 425.675556,11.5483269 C426.21071,11.4070111 427.173987,11.2068138 428.244294,11.0183928 C429.368118,10.8064191 429.261087,10.7004323 427.762656,10.5708929 Z" id="Path" transform="translate(214.999238, 56.912738) rotate(-1.000000) translate(-214.999238, -56.912738) "></path>
                <path d="M167.156036,2.1561514 C167.156036,2.1561514 167.193465,2.1561514 167.156036,2.1561514 C167.193465,2.1561514 167.193465,2.1561514 167.156036,2.1561514 Z" id="Path"></path>
                <path d="M166.65108,2.67861853 C166.684265,2.76379207 166.883373,2.55085832 166.982927,2.46568478 C166.850188,2.55085832 166.485157,2.33792452 166.65108,2.67861853 Z" id="Path"></path>
                <path d="M166.140778,10.6309149 C166.103349,10.6309149 166.028491,10.5883281 165.991062,10.5883281 C165.991062,10.5883281 165.953633,10.6735016 165.953633,10.7160883 C165.991062,10.7160883 166.06592,10.7586751 166.103349,10.7586751 C166.103349,10.7586751 166.140778,10.6735016 166.140778,10.6309149 L166.140778,10.6309149 Z" id="Path"></path>
                <path d="M167.675361,11.5039432 C167.637932,11.4613565 167.600503,11.4187697 167.563075,11.4187697 C167.525646,11.4187697 167.488217,11.4613565 167.413359,11.5039432 C167.450788,11.54653 167.488217,11.5891167 167.525646,11.6317035 C167.563075,11.5039432 167.600503,11.5039432 167.675361,11.5039432 L167.675361,11.5039432 Z" id="Path"></path>
            </g>
        </g>
    </g>
</svg>