<svg height="462" viewBox="0 0 570 462" width="570" xmlns="http://www.w3.org/2000/svg"><g fill="#bfe9fc"><path d="m568.994584 30.9699294c1.496681-.9238851 1.35414-1.3858276-.641434-1.9504241-.783976-.2053078-1.496681-.3592886-1.853034-.8725581 2.066845-1.026539 2.066845-1.026539.356353-2.001751-.285082-.2053078-.712705-.3079617-1.069058-.4619426 0-.5645964.285082-1.026539.712705-1.5398085.997788-1.1291928 1.211599-2.2070588-.498893-3.2849247-.712705-.4619426-1.567951-.9238851-1.496681-1.6937893.071271-.5645965-.926516-1.077866-1.710492-1.1291929-1.639222-.051327-1.924304-.8212312-2.708279-1.3345007.142541-.8725581-1.140328-1.7964432.356352-2.6176744.427623-.2566348-.07127-.6159234-.498893-.8725581-.641435-.4619426-1.567951-.7699043-1.995574-1.3858277.997787-1.026539.783975-1.1805198-1.425411-1.6424623-.712705-1.59113547-2.351926-3.02829005-1.354139-4.82473327-.356353-.05132695-.641435-.1026539-.997787-.1026539-12.115986-.2053078-24.231973.25663474-36.276688-.3079617-3.848608-.2053078-7.697215-.35928864-11.545823-.56459644-6.200534-.25663475-12.472338-.76990424-18.886684-.71857729-.712705 0-1.42541.05132695-2.138115-.05132695-6.200534-.92388508-12.543609-.71857729-18.815414-1.18051983-3.420984-.25663475-6.841969-.2053078-10.120412-.51326949-4.20496-.35928865-8.40992-.4106156-12.543609-.61592339-6.200534-.3079617-12.401069-.15398085-18.672873-.3079617-7.483403-.25663474-14.966807-.30796169-22.52148-.51326949-1.995575-.05132695-3.991149-.05132695-5.915452-.3079617-2.138116-.25663474-4.418772-.20530779-6.628158 0-4.27623.3079617-8.623731.92388509-12.899961.66725034-5.202747-.35928864-10.262953.4106156-15.323159.56459645-5.345289.15398084-10.690577.71857728-16.107135.71857728-.926517 0-1.924304-.05132694-2.85082.05132695-6.699428.76990424-13.612667.46194255-20.312095.66725034-10.405494.25663475-20.882258.3079617-31.359023-.20530779-9.407707-.46194255-18.957955-.15398085-28.436932-.4106156-11.474552-.30796169-23.020374-.20530779-34.494926.3079617-.213811 0-.427623 0-.712705.05132695-6.129264.76990424-12.401068.20530779-18.530332.71857729-4.418771.35928864-8.908813-.2053078-13.327585-.25663475-5.63037-.1026539-11.189469-.1026539-16.89111.25663475-6.699427.41061559-13.612667.20530779-20.383365.41061559-7.198321.25663475-14.539183.05132695-21.808775-.25663475-4.418771-.20530779-8.837543-.71857729-13.327585-.51326949-.570164 0-1.140328-.2053078-1.710492-.25663474-4.347501-.2053078-8.695002-.5132695-12.971232.20530779-3.492255.56459644-6.913239.66725034-10.4054943.2053078-1.8530332-.25663475-3.8486074-.3079617-5.5590996-.05132695-2.4944677.3079617-4.8463945.3079617-7.3408622.3079617-9.550248 0-19.1004959 0-28.6507439 0-.9265166 0-1.9243037.10265389-2.8508203-.05132695-4.0624189-.76990424-8.4099198-.3079617-12.6148797-.71857729-4.490042-.4106156-9.1938955-.15398085-13.7552079-.1026539-3.9911484.05132695-6.5568867 1.53980848-6.6281572 3.84952119-.0712705 1.69378932 0 3.4389056 0 5.08136794-1.9955742-.1539808-1.7104922 1.2831738-2.4944677 1.3858277-2.0668447.2566347-1.4254102 1.3345006-2.0668447 2.001751-1.2828692-.2566348-2.4231973-1.026539-3.6347959.1539808.9977871.2053078 2.0668447.3079617 2.4944677.9752121.4276231.1539808.9265166.2566347 1.4254102.4106156 0-.1539809 0-.2566348 0-.3079617v.3079617c1.5679511.4106156 2.1381152 1.0778659 1.4254101 2.0530779-1.8530332.5132695-4.4900419.6672504-3.9911484 2.4636936.0712705.2053078-.3563525.4619425-.570164.7185773-1.5679512 1.5911354-.4988936 3.3362517 2.4231972 4.1574829.9977871 1.0265389 1.0690576 2.1044049-.2138115 2.976963-.9265166.6672504-.6414346 1.026539.285082 1.4884815 1.4966807.7185773 2.7082793 1.6424624 2.9220908 2.8229823.0712705.4106155.6414346.7185772 1.2828691.8725581-.2138115 2.7203283-.712705 5.4919836-.6414345 8.2123119.2138115 4.6194254-.7127051 9.1875239-.7839756 13.7556224 0 .5645964-.3563525 1.0778659-.5701641 1.5911354-.2138115.5132695-.3563525 1.026539-.285082 1.5911354.2138115 1.1805198.2138115 2.4123666 0 3.5928865-.6414345 4.5167715-1.9243037 9.033543-2.1381152 13.6529684-.0712705 1.7964433-.2138115 3.6442134-.6414346 5.4406567-.6414345 2.5663474-1.2115986 5.1840218-1.3541396 7.8530232-.0712705 1.7451163-.4988935 3.4902325-.8552461 5.2353488-.570164 2.9256361-1.3541396 5.7486188-1.2115986 8.6229278 0 .872558.2138115 1.796443-.0712705 2.617674-1.0690576 2.874309-.5701641 5.799945-.5701641 8.674255 0 3.387578-.712705 6.72383-.9977871 10.111409-.14254098 1.642462 0 3.336251-.28508199 4.927387-.28508203 1.385827-.35635254 2.822982-.14254102 4.260136.49889351 3.233598 1.28286911 6.415869 1.63922171 9.649467.142541 1.385827-.1425411 2.720328.285082 4.20881.7127051 2.361039 1.1403281 4.824733.9977871 7.2371-.2138115 3.952175-.0712705 7.853023-.0712705 11.805198 0 8.725581.142541 17.451163 0 26.176744-.142541 6.159234.6414345 12.318468.0712705 18.426375-.285082 3.387578 1.0690576 6.72383.6414345 10.111409v.410615c1.5679512 4.157483.3563526 8.366293-.285082 12.472449-.3563525 2.51502-.9265166 4.927387-1.1403281 7.442408-.142541 2.207058.3563525 4.516771-.2138115 6.72383-1.0690576 3.592886-1.4254102 7.185773-2.49446777 10.829986-1.14032811 3.849521-.92651659 7.801697-2.77954977 11.599891-.21381153.410615 0 .769904.14254101 1.18052.71270507 1.693789.14254101 3.490232 0 5.132695-.14254101 1.796443 0 3.592886 0 5.338002.07127051 1.69379-.07127051 3.490233-.07127051 5.132695 0 1.642463 1.14032812 3.490233-.14254101 5.132695-.14254102.256635.14254101.66725.35635253.975212.35635254.615924.42762305 1.18052 0 1.796443-.35635253.615924-.57016405 1.18052-.0712705 1.745117.42762304.615923.35635253 1.180519-.07127051 1.745116-.35635254.615923-.35635254 1.18052 0 1.796443.28508203.461943.57016406.923885.21381152 1.385828-.85524608 1.18052-.57016406 2.412366-.49889355 3.592886.07127051 2.207059.28508203 4.414118 0 6.621177-.14254101 1.077866-.07127051 2.104405-.9977871 3.130944-.57016405.718577-1.42541014 1.796443-.85524608 2.258385 1.42541014 1.283174.21381152 2.258386-.21381152 3.438906-2.28065623 1.026539.14254101 2.771655-1.78176268 3.900848-.42762305.256635.21381152.66725.21381152.975212-.14254102 1.642462 1.78176268 3.438906-.28508203 5.030041 0 0 .28508203.205308.42762304.256635.78397558.718577.71270507 1.539808.71270507 2.36104.07127051 3.952175-1.0690576 7.955677-.78397557 11.959179.21381152 3.644213.0712705 7.339753 0 10.983967 0 .513269.14254101 1.18052-.21381153 1.642462-1.42541014 1.591136-1.14032811 3.387579-1.63922166 5.030041-.42762304 1.539809-1.49668065 3.284925.42762304 4.87606.85524609.718578.85524609 1.642463.9265166 2.566348.14254101 1.077866.14254101 2.207059.9977871 3.336252 1.14032811 1.539808 2.28065622 3.18227 2.28065622 4.87606 0 4.824733 1.14032812 9.546812.78397558 14.371546-.21381152 3.387578-.21381152 6.775157 0 10.162735.14254102 2.053078.28508203 4.157483.28508203 6.210561 0 2.36104 0 4.824734-.35635254 7.185773-.21381152 1.539809-.14254101 3.079617-.57016405 4.619426-.71270507 2.925636-.21381152 5.851272-.57016406 8.776908-.07127051.718577.14254102 1.334501-.9977871 1.693789-1.06905761.359289-.28508203.718578-.21381152 1.077866.28508203 1.642463 2.85082028 3.02829 1.71049217 4.824733 1.21159862 1.129193-.28508203 2.258386.07127051 3.387579.85524608 2.874309.57016405 5.748618-.49889355 8.571601-.71270507 1.899097-.14254102 3.592886 1.49668065 5.286675.42762304.410616.9977871.718578.9977871 1.231847-.49889355 1.026539-.35635254 2.053078-.21381152 3.02829.14254101 1.026539.78397557 1.539809 3.06463184 1.642463 5.345288.256634 10.690576.461942 16.1071346-.102654.3563525-.051327.7839756-.102654.9977871 0 2.7795498.923885 5.7016405.410615 8.6237313.307961 2.8508203-.051327 5.7016406-.564596 8.3386494-.307961 2.4944677.205307 4.4187714-.051327 6.2005341-.769905 1.6392217-.66725 3.2071728-.769904 4.8463945-.205307 1.6392216.564596 1.9955742 0 2.2093857-.769905h41.3368941c5.0602063 0 10.0491413.51327 15.1093473.51327 2.138115 0 4.418772 0 6.485616.102654 3.919878.205308 7.839756.307961 11.830905.307961 2.280656 0 4.775124-.256634 6.841968.051327 3.278444.410616 6.485616-.615923 9.692789.205308 2.922091-.821231 5.986723.410616 8.980084-.256635.356353-.102653.926517.051327 1.35414.153981 1.282869.256635 2.494468.307962 3.777337 0 .926516-.256634 1.853033-.256634 2.779549 0 .997788.256635 2.066845.256635 3.135903.102654 2.85082-.307962 5.772911-.205308 8.552461-.051327 2.92209.153981 5.70164-.153981 8.623731-.051327 4.703853.153981 9.336436.256635 13.755208.975212 7.839756 1.231847 14.182831-.410615 16.81984-4.824733.498893-.769904 1.211598-.872558 2.280656-.872558h8.766272c11.759634.051327 23.519267.102654 35.207631.102654 9.83533 0 19.74193.051327 29.648531-.153981 8.267378-.153981 16.392216.410616 24.588325.51327 5.63037.102653 11.189469-.153981 16.677298-.667251 7.554674-.718577 15.038077-1.231847 22.735292-1.18052 4.490042.051327 8.980084-.256634 13.185044-.975212 8.338649-1.437154 16.819839-1.488481 25.30103-1.84777 1.354139-.051327 2.494468.205308 3.563525.718577.855246.359289 1.853033.718578 2.922091.256635 3.278443-1.488481 7.340862-1.18052 11.046929-1.642462 1.069057-.153981 2.351926-.256635 3.420984.513269.498893.359289 2.280656-.359288 3.634796.051327 2.066845.718578 4.133689.256635 5.986722-.359288 2.70828-.872559 5.63037-.769905 8.552461-.769905 1.853033 0 3.634796.872558 5.487829.359289 2.066845-.564596 4.276231-.51327 6.485616-.66725 2.066845-.102654 4.276231.205307 5.844182-.975212.142541-.153981.641435-.205308.926517-.205308 4.347501-.051327 8.623731-.102654 12.899961-.153981.926517 0 1.924304.051327 2.850821-.051327 3.634796-.461943 7.269591-.564596 11.046928-.461943 7.412133.205308 14.824266.256635 22.307669-1.077865 8.908813-1.591136 18.387791-1.69379 27.724227-1.69379h20.810988c2.494468 0 5.060206.256635 6.057994-1.591135.07127-.153981.285082-.256635.427623-.256635 1.42541-.205308 2.423197-.718577 3.563525-1.129193 1.282869-.410615 1.924304-.66725 1.924304-1.539808 0-.256635 1.567951-.461943 2.351926-.769905 1.069058-.461942 1.069058-1.180519-.142541-1.385827-3.064631-.307962-3.634796-1.642463-3.848607-3.02829-.142541-1.18052-.855246-2.053078-2.85082-2.515021-.213812-.153981-.427623-.256634-.712705-.410615 0-.51327-.285082-1.18052.356352-1.539809 2.138115-1.385827 1.710492-2.617674.213812-4.106156-.641435-.615923-1.781763-1.385827-.213812-2.258385.641435-.410616-.356352-.769905-1.069057-1.026539-.071271-.718578.712705-1.539809-.427624-2.258386-.285082-.205308-.427623-.718578-.213811-.923885.855246-.923885.285082-1.950424.641435-2.925636.356352-1.334501 1.853033-2.258386 3.207172-3.233598.570164-.410616.783976-.769904.285082-1.231847 0-.461943.071271-.975212-.07127-1.437155-.427623-1.180519-1.496681-2.155731-2.423197-3.233597-.855246-.923885 1.069057-2.309713 0-3.490233-.071271-.153981-.213812-.256635-.213812-.359289 0-.410615-.142541-.821231 0-1.180519.712705-1.334501.783976-2.617675 0-3.952175-.285082-.51327-.285082-1.077866.071271-1.591136.498893-.718577.570164-1.488481.356352-2.207059-.427623-1.3345 0-2.669001 0-3.952175-.142541-6.415868.570164-12.831737-.427623-19.298933-.498893-3.490232-1.42541-7.031792-.855246-10.522024.427623-2.515021-1.639222-4.927387-.071271-7.442408.071271-.102654 0-.256635-.07127-.359289-.783976-.975212-.427623-2.001751-.498894-3.02829-.213811-3.079617.570164-6.261887-.641434-9.341504-.071271-.256635-.071271-.564597 0-.821232 1.282869-3.387578.356352-6.72383.641434-10.111409.071271-1.385827.071271-2.771655.285082-4.208809.285082-2.258386.712706-4.568099 1.069058-6.826485.071271-.513269.071271-1.129192-.07127-1.642462-.997788-3.130944-1.425411-6.261888-1.35414-9.495486.07127-3.438905 0-6.775157 0-10.162736 0-.461942-.071271-.975212.07127-1.437154 1.069058-3.02829.855247-6.210561 1.211599-9.238851.213812-2.207059.783976-4.414118.997787-6.672503.213812-3.079617 1.496681-6.159234 1.282869-9.238851 0-.307962 0-.718578.071271-1.026539.855246-2.566348.712705-5.235349 1.354139-7.853023.498894-2.053078.570164-4.003502.855247-6.05658.427623-3.284925 1.42541-6.518523 1.924303-9.854775.356353-2.617674.570164-5.286675.570164-7.853023 0-5.902599.997787-11.805198.855246-17.65647 0-.615924-.07127-1.231847.142541-1.847771.926517-2.412366 1.069058-4.87606.427623-7.237099-.855246-3.336252-1.42541-6.723831-1.853033-10.008756-.427623-3.490232-1.354139-7.031792-.855246-10.522024.071271-.51327.071271-1.129193-.07127-1.642463-.855246-3.490232-1.28287-6.980465-1.28287-10.470697.071271-11.497237-.712705-23.0458.641435-34.594364.285082-2.617674.142541-5.286676.570164-7.90435.712705-4.260137-.498893-8.520274-.783975-12.78041-.213812-2.720329-.783976-5.491984-.997788-8.212312-.427623-4.978714-.142541-10.008755-.07127-15.090123 0-.615924 0-1.231847.213811-1.7964437.641435-1.5398084.570165-3.02829 0-4.6194254-.641434-1.6424624-.997787-3.3362517-.926516-5.030041.07127-5.6459644.07127-11.2919288 0-16.9378933 0-2.7716552.498893-5.5433105.855246-8.2636388.641435-5.1326949 1.211599-10.2653898 1.35414-15.3980847.07127-2.5663475-1.211599-5.2353489 1.567951-7.5963885.07127-.1026539-.285082-.3592887-.285082-.5645965.213811-1.3345007-1.282869-2.5663474-.213812-3.9521751 0-.0513269-.285082-.2053078-.427623-.3079617.285082-.3592886.926517-.5645964 1.42541-.8725581.997787-.5132695 3.848608-.8212312.855246-2.001751-.356352-.2053078 0-.6672504.213812-.9238851.712705-.6159234 1.995574-1.4884815 3.420984-2.3097127z"/><path d="m15.6669944 15.6671924s.0640449 0 0 0c.0640449 0 .0640449 0 0 0z"/><path d="m14.8029593 16.5611917c.0567827.1457414.3974791-.2186119.5678272-.3643533-.2271309.1457414-.8517408-.218612-.5678272.3643533z"/><path d="m13.9297753 30.1684543c-.064045 0-.1921349-.0728707-.2561798-.0728707 0 0-.0640449.1457413-.0640449.218612.0640449 0 .1921348.0728706.2561797.0728706 0 0 .064045-.1457413.064045-.2186119z"/><path d="m16.555618 31.6623028c-.064045-.0728706-.1280899-.1457413-.1921349-.1457413-.0640449 0-.1280898.0728707-.2561797.1457413.0640449.0728707.1280899.1457414.1921348.218612.0640449-.218612.1280899-.218612.2561798-.218612z"/></g></svg>