<?xml version="1.0" encoding="UTF-8"?>
<svg width="109px" height="102px" viewBox="0 0 109 102" version="1.1" xmlns="http://www.w3.org/2000/svg" xmlns:xlink="http://www.w3.org/1999/xlink">
    <!-- Generator: Sketch 56.2 (81672) - https://sketch.com -->
    <title>viwr_logo</title>
    <desc>Created with Sketch.</desc>
    <defs>
        <linearGradient x1="50%" y1="0%" x2="50%" y2="100%" id="linearGradient-1">
            <stop stop-color="#80C3F3" offset="0%"></stop>
            <stop stop-color="#4A90E2" offset="100%"></stop>
        </linearGradient>
        <linearGradient x1="50%" y1="0%" x2="50%" y2="100%" id="linearGradient-2">
            <stop stop-color="#80C3F3" offset="0%"></stop>
            <stop stop-color="#4A90E2" offset="100%"></stop>
        </linearGradient>
    </defs>
    <g id="Page-1" stroke="none" stroke-width="1" fill="none" fill-rule="evenodd">
        <g id="Landing-Page-I" transform="translate(-81.000000, -24.000000)">
            <g id="Hero-Banner" transform="translate(-185.000000, -123.000000)">
                <g id="Navigation-Bar-2" transform="translate(185.000000, 123.000000)">
                    <g id="Navigation-Bar">
                        <g id="viwr_logo" transform="translate(81.000000, 24.000000)">
                            <g id="Rectangle" transform="translate(26.000000, 8.000000)">
                                <g id="path-1-link" fill="#000000" fill-rule="nonzero">
                                    <path d="M80.4825334,0 L30.9533012,0 C28.7866289,0 26.2014606,2.73510561 25.1791663,6.10902917 L0.421672109,87.817296 C-0.60062223,91.1912195 0.299716332,93.9263252 2.43263458,93.9263252 L51.1902618,93.9263252 C53.3231801,93.9263252 55.9070137,91.1912195 56.9614154,87.817296 L82.4964772,6.10902917 C83.5508792,2.73510561 82.6492056,0 80.4825334,0 Z" id="path-1"></path>
                                </g>
                                <g id="path-1-link" fill="#4A90E2">
                                    <path d="M80.4825334,0 L30.9533012,0 C28.7866289,0 26.2014606,2.73510561 25.1791663,6.10902917 L0.421672109,87.817296 C-0.60062223,91.1912195 0.299716332,93.9263252 2.43263458,93.9263252 L51.1902618,93.9263252 C53.3231801,93.9263252 55.9070137,91.1912195 56.9614154,87.817296 L82.4964772,6.10902917 C83.5508792,2.73510561 82.6492056,0 80.4825334,0 Z" id="path-1"></path>
                                </g>
                            </g>
                            <g id="Rectangle">
                                <g id="path-4-link" fill="#000000" fill-rule="nonzero">
                                    <path d="M56.0364925,0 L2.8910122,0 C0.566145817,0 -0.592737533,2.96369681 0.302573804,6.61960202 L21.9848479,95.15678 C22.8801593,98.8126853 25.4612681,101.776382 27.7499159,101.776382 L80.0674546,101.776382 C82.3561024,101.776382 83.5135534,98.8126853 82.6526938,95.15678 L61.8047595,6.61960202 C60.9439002,2.96369681 58.3613591,0 56.0364925,0 Z" id="path-4"></path>
                                </g>
                                <g id="path-4-link" fill="url(#linearGradient-2)">
                                    <path d="M56.0364925,0 L2.8910122,0 C0.566145817,0 -0.592737533,2.96369681 0.302573804,6.61960202 L21.9848479,95.15678 C22.8801593,98.8126853 25.4612681,101.776382 27.7499159,101.776382 L80.0674546,101.776382 C82.3561024,101.776382 83.5135534,98.8126853 82.6526938,95.15678 L61.8047595,6.61960202 C60.9439002,2.96369681 58.3613591,0 56.0364925,0 Z" id="path-4"></path>
                                </g>
                            </g>
                        </g>
                    </g>
                </g>
            </g>
        </g>
    </g>
</svg>