<svg width="190" height="40" xmlns="http://www.w3.org/2000/svg">
 <!-- Created with Method Draw - http://github.com/duopixel/Method-Draw/ -->

 <g>
  <title>background</title>
  <rect fill="#fff" id="canvas_background" height="42" width="192" y="-1" x="-1"/>
  <g display="none" overflow="visible" y="0" x="0" height="100%" width="100%" id="canvasGrid">
   <rect fill="url(#gridpattern)" stroke-width="0" y="0" x="0" height="100%" width="100%"/>
  </g>
 </g>
 <g>
  <title>Layer 1</title>
  <!-- Generator: Sketch 52.4 (67378) - http://www.bohemiancoding.com/sketch -->
  <desc transform="matrix(0.7212372365599008,0,0,0.7212372365599008,0,0) ">Created with Sketch.</desc>
  <g stroke="null" id="svg_10">
   <g transform="matrix(0.7922599408567864,0,0,0.7922599408567864,-4.981103674660972,-18.26289945800454) " fill-rule="evenodd" fill="none" id="svg_6">
    <g stroke="null" fill="#EF4136" id="svg_7">
     <path stroke="null" id="svg_8" d="m17.474143,63.064032l0,-10.35426l-6.2434,-20.88703l5.16541,0l3.72807,14.2371l0.08984,0l3.72807,-14.2371l4.71624,0l-6.2434,20.88703l0,10.35426l-4.94083,0zm17.02339,-24.05579l0,16.87029c0,2.23152 0.98816,3.0795 2.56024,3.0795c1.57208,0 2.56025,-0.84798 2.56025,-3.0795l0,-16.87029c0,-2.23152 -0.98817,-3.0795 -2.56025,-3.0795c-1.57208,0 -2.56024,0.84798 -2.56024,3.0795zm-4.94083,16.55788l0,-16.24547c0,-4.9986 2.65008,-7.85495 7.50107,-7.85495c4.85099,0 7.50107,2.85635 7.50107,7.85495l0,16.24547c0,4.9986 -2.65008,7.85495 -7.50107,7.85495c-4.85099,0 -7.50107,-2.85635 -7.50107,-7.85495zm17.96664,-23.74338l4.94082,0l0,24.10042c0,2.23152 0.98816,3.03487 2.56024,3.03487c1.57208,0 2.56025,-0.80335 2.56025,-3.03487l0,-24.10042l4.67132,0l0,23.78801c0,4.9986 -2.51532,7.85495 -7.36632,7.85495c-4.85099,0 -7.36631,-2.85635 -7.36631,-7.85495l0,-23.78801zm33.46285,31.24129l-5.03066,0c-0.2695,-0.80335 -0.44917,-1.29428 -0.44917,-3.83822l0,-4.90934c0,-2.90098 -0.98816,-3.97211 -3.23399,-3.97211l-1.70683,0l0,12.71967l-4.94082,0l0,-31.24129l7.45615,0c5.12049,0 7.3214,2.36541 7.3214,7.1855l0,2.45467c0,3.21339 -1.03308,5.26639 -3.23399,6.29289l0,0.08926c2.47041,1.0265 3.27891,3.34728 3.27891,6.6053l0,4.82008c0,1.51744 0.04491,2.6332 0.539,3.79359zm-8.04007,-26.77825l-2.38058,0l0,9.59554l1.93141,0c1.84158,0 2.9645,-0.80335 2.9645,-3.30265l0,-3.0795c0,-2.23152 -0.76358,-3.21339 -2.51533,-3.21339zm10.10623,3.03487c0,-4.9986 2.47041,-7.85495 7.27649,-7.85495c4.80607,0 7.27648,2.85635 7.27648,7.85495l0,0.98187l-4.67132,0l0,-1.29428c0,-2.23152 -0.89833,-3.0795 -2.47042,-3.0795c-1.57208,0 -2.47041,0.84798 -2.47041,3.0795c0,2.27615 0.98817,3.9721 4.22216,6.78382c4.13233,3.61506 5.43491,6.20363 5.43491,9.77406c0,4.9986 -2.51533,7.85495 -7.36632,7.85495c-4.85099,0 -7.36632,-2.85635 -7.36632,-7.85495l0,-1.91911l4.67132,0l0,2.23152c0,2.23152 0.98817,3.03487 2.56025,3.03487c1.57208,0 2.56024,-0.80335 2.56024,-3.03487c0,-2.27615 -0.98816,-3.97211 -4.22215,-6.78382c-4.13233,-3.61506 -5.43491,-6.20363 -5.43491,-9.77406zm15.9903,-3.03487l0,-4.46304l15.27164,0l0,4.46304l-5.16541,0l0,26.77825l-4.94082,0l0,-26.77825l-5.16541,0zm21.96421,2.72246l0,16.87029c0,2.23152 0.98816,3.0795 2.56024,3.0795c1.57208,0 2.56025,-0.84798 2.56025,-3.0795l0,-16.87029c0,-2.23152 -0.98817,-3.0795 -2.56025,-3.0795c-1.57208,0 -2.56024,0.84798 -2.56024,3.0795zm-4.94082,16.55788l0,-16.24547c0,-4.9986 2.65007,-7.85495 7.50106,-7.85495c4.85099,0 7.50107,2.85635 7.50107,7.85495l0,16.24547c0,4.9986 -2.65008,7.85495 -7.50107,7.85495c-4.85099,0 -7.50106,-2.85635 -7.50106,-7.85495zm33.55268,7.49791l-5.03066,0c-0.2695,-0.80335 -0.44916,-1.29428 -0.44916,-3.83822l0,-4.90934c0,-2.90098 -0.98817,-3.97211 -3.234,-3.97211l-1.70683,0l0,12.71967l-4.94082,0l0,-31.24129l7.45615,0c5.12049,0 7.3214,2.36541 7.3214,7.1855l0,2.45467c0,3.21339 -1.03308,5.26639 -3.23399,6.29289l0,0.08926c2.47041,1.0265 3.27891,3.34728 3.27891,6.6053l0,4.82008c0,1.51744 0.04492,2.6332 0.539,3.79359zm-8.04007,-26.77825l-2.38058,0l0,9.59554l1.93142,0c1.84158,0 2.96449,-0.80335 2.96449,-3.30265l0,-3.0795c0,-2.23152 -0.76358,-3.21339 -2.51533,-3.21339zm14.91231,26.77825l0,-10.35426l-6.24341,-20.88703l5.16541,0l3.72807,14.2371l0.08984,0l3.72807,-14.2371l4.71624,0l-6.2434,20.88703l0,10.35426l-4.94082,0z"/>
    </g>
   </g>
  </g>
  <text font-weight="normal" xml:space="preserve" text-anchor="start" font-family="Arvo, sans-serif" font-size="15" id="svg_11" y="17.407412" x="129.629628" stroke-width="0" stroke="#000" fill="#000000">Techie</text>
  <text font-weight="normal" xml:space="preserve" text-anchor="start" font-family="Arvo, sans-serif" font-size="15" id="svg_12" y="32.222227" x="129.629627" stroke-width="0" stroke="#000" fill="#000000">Tuesday</text>
 </g>
</svg>